<svg xmlns="http://www.w3.org/2000/svg" width="144.8" height="80.028" viewBox="0 0 144.8 80.028">
  <g id="Group_1206" data-name="Group 1206" transform="translate(-260.369 -362.987)">
    <path id="Path_1" data-name="Path 1" d="M267.022,392.495a32.8,32.8,0,0,1,10.458-15.324c.644-1.514,1.3-3.044,1.094-3.158a.064.064,0,0,0-.045-.006c-.371.08-1.857,2.4-2.931,3.894.363-1.578.806-3.361.585-3.436a.059.059,0,0,0-.021,0c-.268.022-1.122,2.026-1.83,3.541-.011-1.87.267-5.381-.07-5.427-.317-.043-.923,3.006-1.415,4.868-.237-1.637-.474-3.577-.714-3.567s-.328,2.136-.44,3.827c-.682-1.773-1.646-4.979-1.968-4.9s.252,3.3.451,5.2c-.807-1.427-1.752-3.208-2.011-3.208a.037.037,0,0,0-.018,0c-.224.1.428,2.011.928,3.6-1.25-1.4-3.146-3.817-3.478-3.752a.048.048,0,0,0-.02.007c-.276.191,1.5,3.1,2.345,4.791a18.217,18.217,0,0,0-3.127-2.362.053.053,0,0,0-.038.014c-.171.169,1.077,1.662,2.107,2.951-1.594-.822-3.958-2.213-4.416-2.188a.085.085,0,0,0-.07.028c-.19.281,2.575,2.4,3.959,3.662a24.44,24.44,0,0,0-3.822-1.121c-.048,0-.078.02-.09.044-.1.218,1.575,1.144,2.993,1.968-1.56-.17-3.756-.515-4.555-.473-.181.01-.291.039-.3.095-.076.331,3.268,1.308,5.011,1.982-.717.044-1.54.078-2.266.122-1.018.061-1.832.14-1.84.3-.013.24,1.911.5,3.538.755-1.859.5-4.677,1.093-4.634,1.4.048.334,3.456.04,5.335.031-1.57.724-3.78,1.631-3.7,1.885.076.233,2.029-.244,3.656-.6-1.555,1.139-3.985,2.728-3.834,3,.161.288,3.11-1.151,4.873-1.857-1.2,1.238-2.892,2.847-2.726,3.051s1.9-1.027,3.31-1.958c-1.034,1.627-2.784,4.058-2.542,4.259.168.139,1.2-.865,2.277-1.936" transform="translate(0 -6.638)" fill="#ffcf00" fill-rule="evenodd"/>
    <rect id="Rectangle_1685" data-name="Rectangle 1685" width="8.022" height="8.373" transform="translate(307.113 385.674)" fill="#0d672f"/>
    <rect id="Rectangle_1686" data-name="Rectangle 1686" width="6.376" height="6.376" transform="translate(308.686 371.235)" fill="#1a1818"/>
    <rect id="Rectangle_1687" data-name="Rectangle 1687" width="3.329" height="3.328" transform="translate(319.446 373.895)" fill="#8dbadc"/>
    <rect id="Rectangle_1688" data-name="Rectangle 1688" width="2.077" height="2.076" transform="translate(325.349 374.796)" fill="#1a1818"/>
    <rect id="Rectangle_1689" data-name="Rectangle 1689" width="4.372" height="4.371" transform="translate(324.874 378.776)" fill="#071f46"/>
    <rect id="Rectangle_1690" data-name="Rectangle 1690" width="7.271" height="7.272" transform="translate(320.841 385.079)" fill="#8dbadc"/>
    <rect id="Rectangle_1691" data-name="Rectangle 1691" width="3.146" height="3.147" transform="translate(317.398 379.466)" fill="#0d672f"/>
    <rect id="Rectangle_1692" data-name="Rectangle 1692" width="2.449" height="2.45" transform="translate(330.735 384.031)" fill="#0d672f"/>
    <rect id="Rectangle_1693" data-name="Rectangle 1693" width="2.343" height="2.344" transform="translate(317.591 369.455)" fill="#071f46"/>
    <rect id="Rectangle_1694" data-name="Rectangle 1694" width="3.146" height="3.147" transform="translate(311.598 380.465)" fill="#8dbadc"/>
    <g id="Group_1206-2" data-name="Group 1206" transform="translate(266.154 362.987)">
      <path id="Path_2" data-name="Path 2" d="M358.809,424.129a73.716,73.716,0,0,0,20.057.185,67.7,67.7,0,0,1-19.51-1.871A12.44,12.44,0,0,0,358.809,424.129Z" transform="translate(-334.297 -404.144)" fill="#003e6a"/>
      <path id="Path_3" data-name="Path 3" d="M326.56,447.555a65.475,65.475,0,0,1-9.24.316c-13.354,0-25.271-4.031-30.673-9.626a33.669,33.669,0,0,1,2.808-25.121,25.221,25.221,0,0,1-4.213-2.789,32.553,32.553,0,0,0-4.674,28.391c5.233,5.808,17.624,10.192,31.292,10.192A62.488,62.488,0,0,0,326.56,447.555Z" transform="translate(-279.164 -395.763)" fill="#003e6a"/>
      <path id="Path_4" data-name="Path 4" d="M302.847,376.076a32.822,32.822,0,0,0,12.833,6.011,28.137,28.137,0,0,0-1.559,5.34c-1.577,8.49-1.123,17.129,1.415,22.275a55.987,55.987,0,0,1,.431-19.966c2.154-11.233,8.478-18.674,14.209-22.3-4.448.921-10.176,5.7-13.585,12.606a28.2,28.2,0,0,1-7.888-4.126c4.987-6.475,13.137-11.886,22.074-12.914a34.81,34.81,0,0,0-27.931,13.078h0Z" transform="translate(-295.558 -362.987)" fill="#003e6a"/>
      <path id="Path_5" data-name="Path 5" d="M296.826,519.489a25.244,25.244,0,0,1-8.6-4.53c5.77,12.58,18.392,20.3,30.931,20.338,1.038,0,2.668.066,3.664-.026A34.073,34.073,0,0,1,296.826,519.489Z" transform="translate(-285.439 -468.187)" fill="#003e6a"/>
      <path id="Path_6" data-name="Path 6" d="M449.568,507.859s-4.232,12.349-16.966,17.966c0,0,15.542-4.886,20.774-21.428A34.627,34.627,0,0,1,449.568,507.859Z" transform="translate(-385.379 -460.876)" fill="#003e6a"/>
    </g>
    <path id="Path_7" data-name="Path 7" d="M455.053,497.97l-.038-.026a12.321,12.321,0,0,0,2.847-7.977v-.136c0-6.3-4.522-12.652-14.624-12.652H416.226l-15.25,16.908V477.179h-9.5v44.883h9.5V504.071l17.385,17.992h25.6a19.173,19.173,0,0,0,10.387-2.532,12.632,12.632,0,0,0,5.98-10.965v-.155a12.485,12.485,0,0,0-5.271-10.439m-46.949.43,18.765-20.753v40.279Zm42.54,10.164c0,4.034-3.336,5.741-8.612,5.741h-5.718V484.935h5.5c4.42,0,6.868,1.768,6.868,4.9v.136c0,3.536-2.924,5.032-7.548,5.032h-2.4v7.825h4.07c5.043,0,7.836,2.017,7.836,5.586Z" transform="translate(-90.757 -79.047)" fill="#003e6a"/>
    <path id="Path_8" data-name="Path 8" d="M650.379,522.061l-11.138-20.987a12.043,12.043,0,0,0,6.958-11.108v-.136c0-6.3-4.522-12.652-14.624-12.652h-16.6v44.882h9.464V484.935h5.711c4.42,0,6.869,1.768,6.869,4.9v.136c0,3.536-2.924,5.032-7.549,5.032h-2.607v7.825h3.359l10.317,19.238Z" transform="translate(-245.471 -79.047)" fill="#003e6a"/>
    <g id="Group_1207" data-name="Group 1207" transform="translate(399.47 397.078)">
      <path id="Path_9" data-name="Path 9" d="M712.339,476.6a2.85,2.85,0,1,1,2.844,2.843A2.844,2.844,0,0,1,712.339,476.6Zm5.33,0a2.48,2.48,0,1,0-2.486,2.474A2.484,2.484,0,0,0,717.669,476.6Zm-3.693-1.76h1.367a1.023,1.023,0,0,1,1.145,1.046.97.97,0,0,1-.689.985l1.022,1.44h-.776l-.948-1.378h-.431v1.378h-.689Zm1.255,1.588a.542.542,0,1,0,0-1.083h-.566v1.083Z" transform="translate(-712.339 -473.754)" fill="#003e6a"/>
    </g>
  </g>
</svg>
