<svg id="Paris_New_Logo" data-name="Paris New Logo" xmlns="http://www.w3.org/2000/svg" xmlns:xlink="http://www.w3.org/1999/xlink" width="126.004" height="58.762" viewBox="0 0 126.004 58.762">
  <defs>
    <clipPath id="clip-path">
      <rect id="Rectangle_94574" data-name="Rectangle 94574" width="126.003" height="58.762" fill="#fff"/>
    </clipPath>
  </defs>
  <g id="Group_241051" data-name="Group 241051" clip-path="url(#clip-path)">
    <path id="Path_131836" data-name="Path 131836" d="M163.574,29.676v-9.97a3.333,3.333,0,0,0-.235-1.364q-.235-.517-1.081-.517h-.188V17.26h5.173q.508,0,1.166.066a7.16,7.16,0,0,1,1.345.272,4.374,4.374,0,0,1,1.27.621,3.055,3.055,0,0,1,.941,1.1,3.712,3.712,0,0,1,.358,1.722,3.348,3.348,0,0,1-.358,1.627,3.081,3.081,0,0,1-.913,1.044,4.412,4.412,0,0,1-1.176.6,5.911,5.911,0,0,1-1.175.273,8,8,0,0,1-.894.066h-1.787v5.022Zm2.446-5.775h1.129a3.33,3.33,0,0,0,.94-.132,1.962,1.962,0,0,0,.809-.47,2.4,2.4,0,0,0,.574-.912,4.112,4.112,0,0,0,.216-1.439,4.117,4.117,0,0,0-.216-1.439,2.382,2.382,0,0,0-.564-.9,1.956,1.956,0,0,0-.781-.46,3.008,3.008,0,0,0-.884-.132c-.138,0-.3.007-.5.019a5.054,5.054,0,0,0-.724.113Z" transform="translate(-100.494 -10.702)" fill="#fff"/>
    <path id="Path_131837" data-name="Path 131837" d="M197.546,29.753a5.779,5.779,0,0,1-1.307-.16,3.171,3.171,0,0,1-1.317-.687,4.131,4.131,0,0,1-1.081-1.6l-.433-1.054h-5l-1.543,3.424h-.978l5.549-12.415h.846l4.214,10.045a3.945,3.945,0,0,0,.828,1.317,1.871,1.871,0,0,0,1.128.564v.47a3.172,3.172,0,0,1-.423.066,4.689,4.689,0,0,1-.48.029M188.8,25.407h4.251l-2.069-4.91Z" transform="translate(-115.26 -10.704)" fill="#fff"/>
    <path id="Path_131838" data-name="Path 131838" d="M227.26,29.865A3.111,3.111,0,0,1,226,29.6a3.76,3.76,0,0,1-1.176-.856,9.251,9.251,0,0,1-1.194-1.608L221.748,24H221v5.681h-2.464V19.706a3.332,3.332,0,0,0-.235-1.363q-.236-.518-1.082-.518h-.188v-.564h5.192q.508,0,1.176.066a7.4,7.4,0,0,1,1.345.263,4.793,4.793,0,0,1,1.26.574,2.9,2.9,0,0,1,.94.987,2.96,2.96,0,0,1,.358,1.514,2.773,2.773,0,0,1-.442,1.627,3.1,3.1,0,0,1-1.138.988,7.41,7.41,0,0,1-1.467.564l1.975,3.292a4.936,4.936,0,0,0,1.316,1.6,2.935,2.935,0,0,0,1.016.47v.471a1.976,1.976,0,0,1-.536.131,5.259,5.259,0,0,1-.762.057M221,23.243h1.129a3.2,3.2,0,0,0,.9-.132,2.283,2.283,0,0,0,.818-.432,2.158,2.158,0,0,0,.593-.809,3.06,3.06,0,0,0,.225-1.242,3.1,3.1,0,0,0-.216-1.232,2.174,2.174,0,0,0-.583-.809,2.228,2.228,0,0,0-.809-.442,3.13,3.13,0,0,0-.894-.132c-.1,0-.248.007-.442.019a5.124,5.124,0,0,0-.724.113Z" transform="translate(-134.572 -10.703)" fill="#fff"/>
    <path id="Path_131839" data-name="Path 131839" d="M251.15,29.677a2.025,2.025,0,0,1-1.025-.216,1.2,1.2,0,0,1-.517-.753,5.7,5.7,0,0,1-.15-1.477v-9.97H251.9v9.97a3.328,3.328,0,0,0,.235,1.364q.235.518,1.082.517h.188v.564Z" transform="translate(-154.681 -10.703)" fill="#fff"/>
    <path id="Path_131840" data-name="Path 131840" d="M265.937,29.444a7.777,7.777,0,0,1-1.524-.151,5.988,5.988,0,0,1-1.373-.442,2.924,2.924,0,0,1-.987-.715,1.414,1.414,0,0,1-.367-.95v-2.2h.527a4.611,4.611,0,0,0,1.214,2.784,3.572,3.572,0,0,0,2.492.827,3.455,3.455,0,0,0,1.251-.207,1.773,1.773,0,0,0,.828-.611,1.676,1.676,0,0,0,.291-1.006,1.861,1.861,0,0,0-.517-1.345,7.034,7.034,0,0,0-1.42-1.082l-2.314-1.392a5.445,5.445,0,0,1-1.806-1.543,3.214,3.214,0,0,1-.527-1.825,2.8,2.8,0,0,1,1.138-2.351,4.965,4.965,0,0,1,3.076-.865,7.779,7.779,0,0,1,1.524.15,6.012,6.012,0,0,1,1.373.442,3.007,3.007,0,0,1,.987.705,1.4,1.4,0,0,1,.367.96v2.2h-.527a4.807,4.807,0,0,0-1.2-2.784,3.25,3.25,0,0,0-2.314-.828,2.83,2.83,0,0,0-1.176.226,1.647,1.647,0,0,0-1.025,1.6,1.651,1.651,0,0,0,.536,1.28,8.794,8.794,0,0,0,1.421,1.016l2.313,1.373a7.005,7.005,0,0,1,1.872,1.477,2.689,2.689,0,0,1,.593,1.759,3.055,3.055,0,0,1-1.223,2.558,5.642,5.642,0,0,1-3.5.941" transform="translate(-162.263 -10.151)" fill="#fff"/>
    <path id="Path_131841" data-name="Path 131841" d="M168.81,73.547a5.8,5.8,0,0,1-2.822-.621,3.89,3.89,0,0,1-1.693-1.872,7.571,7.571,0,0,1-.565-3.113V63.389a3.549,3.549,0,0,0-.207-1.317.989.989,0,0,0-.941-.564h-.169v-.564h2.069a1.955,1.955,0,0,1,1.025.226,1.234,1.234,0,0,1,.517.752,5.588,5.588,0,0,1,.15,1.467L166.2,68.5a5.607,5.607,0,0,0,.762,3.076,2.5,2.5,0,0,0,2.229,1.119,3.874,3.874,0,0,0,2.088-.508,2.974,2.974,0,0,0,1.195-1.562,7.937,7.937,0,0,0,.386-2.69v-7h.941v7a8.445,8.445,0,0,1-.48,3.019,3.751,3.751,0,0,1-1.571,1.919,5.588,5.588,0,0,1-2.935.668" transform="translate(-100.708 -37.789)" fill="#fff"/>
    <path id="Path_131842" data-name="Path 131842" d="M205.3,73.415l-7.976-9.368v9.312h-.941V63.2a2.022,2.022,0,0,0-.348-1.2,1.557,1.557,0,0,0-1.345-.489H194.6v-.564h1.317a4.525,4.525,0,0,1,1.74.282,2.673,2.673,0,0,1,1.1.846l6.471,7.525V60.943h.94V73.415Z" transform="translate(-120.663 -37.789)" fill="#fff"/>
    <path id="Path_131843" data-name="Path 131843" d="M233.077,73.358a2.025,2.025,0,0,1-1.025-.216,1.2,1.2,0,0,1-.517-.753,5.7,5.7,0,0,1-.15-1.477v-9.97h2.446v9.97a3.328,3.328,0,0,0,.235,1.364q.235.518,1.082.517h.188v.564Z" transform="translate(-143.474 -37.788)" fill="#fff"/>
    <path id="Path_131844" data-name="Path 131844" d="M246.141,73.358V61.789h-1.336a2.352,2.352,0,0,0-1.58.5,2.223,2.223,0,0,0-.583,1.759h-.564v-1.6a2.032,2.032,0,0,1,.131-.724,1.128,1.128,0,0,1,.48-.564,1.878,1.878,0,0,1,.988-.217h8.841v.847h-3.931V73.358Z" transform="translate(-150.105 -37.788)" fill="#fff"/>
    <path id="Path_131845" data-name="Path 131845" d="M270.765,73.358V63.672a3.341,3.341,0,0,0-.235-1.364q-.236-.517-1.082-.517h-.188v-.849h8.3a1.87,1.87,0,0,1,1,.217,1.138,1.138,0,0,1,.47.564,2.024,2.024,0,0,1,.132.724v1.6h-.564a2.172,2.172,0,0,0-.612-1.73,2.585,2.585,0,0,0-1.74-.527h-3.028v4.7H278.1v.846h-4.891v5.173h3.217a3.209,3.209,0,0,0,1.759-.46,3.423,3.423,0,0,0,1.214-1.683l.508.188-.545,1.486a2.694,2.694,0,0,1-.536.96,1.443,1.443,0,0,1-1.1.357Z" transform="translate(-166.96 -37.788)" fill="#fff"/>
    <path id="Path_131846" data-name="Path 131846" d="M299.236,73.358v-9.97A3.335,3.335,0,0,0,299,62.025q-.235-.517-1.081-.517h-.188v-.564h5.116q3.875,0,5.822,1.636a5.559,5.559,0,0,1,1.947,4.5,6.3,6.3,0,0,1-.837,3.273,5.7,5.7,0,0,1-2.455,2.21,8.951,8.951,0,0,1-3.989.8Zm4.044-.752a4.192,4.192,0,0,0,2.333-.658,4.467,4.467,0,0,0,1.6-1.881,7.541,7.541,0,0,0,.009-5.794,4.515,4.515,0,0,0-1.6-1.9,4.22,4.22,0,0,0-2.38-.677c-.276,0-.514.007-.715.019s-.483.051-.846.113V72.474q.414.076.649.1a3.675,3.675,0,0,0,.442.028Z" transform="translate(-184.614 -37.789)" fill="#fff"/>
    <path id="Path_131847" data-name="Path 131847" d="M169.831,116.8a6.908,6.908,0,0,1-2.7-.517,6.548,6.548,0,0,1-3.565-3.593,6.917,6.917,0,0,1-.508-2.662,6.82,6.82,0,0,1,.771-3.255A5.844,5.844,0,0,1,166,104.48a6.191,6.191,0,0,1,3.264-.846,7.751,7.751,0,0,1,2.9.461,4.37,4.37,0,0,1,1.655,1.063,2.174,2.174,0,0,1,.433,1.223q.056.753.056,1.392h-.564a4.213,4.213,0,0,0-1.317-2.511,4,4,0,0,0-2.6-.781,3.753,3.753,0,0,0-1.909.452,3.665,3.665,0,0,0-1.28,1.241,5.67,5.67,0,0,0-.724,1.787,9.346,9.346,0,0,0-.226,2.069,9.473,9.473,0,0,0,.555,3.593,3.773,3.773,0,0,0,1.5,1.872,4.031,4.031,0,0,0,2.088.555,6.881,6.881,0,0,0,1.449-.132,5.327,5.327,0,0,0,1.091-.358v-3.348a2.65,2.65,0,0,1,.122-.79,1.71,1.71,0,0,1,.5-.743,2.7,2.7,0,0,1,1.1-.555,7.263,7.263,0,0,1,1.928-.207v.47a.992.992,0,0,0-.922.47,2.57,2.57,0,0,0-.282,1.317v3.367a8.271,8.271,0,0,1-2.314.959,11.185,11.185,0,0,1-2.671.3" transform="translate(-101.108 -64.26)" fill="#fff"/>
    <path id="Path_131848" data-name="Path 131848" d="M207.406,117.228a3.111,3.111,0,0,1-1.26-.264,3.759,3.759,0,0,1-1.176-.856,9.25,9.25,0,0,1-1.194-1.608l-1.882-3.142h-.752v5.681h-2.464v-9.971a3.332,3.332,0,0,0-.235-1.363q-.236-.518-1.082-.518h-.188v-.564h5.192q.508,0,1.176.066a7.4,7.4,0,0,1,1.345.263,4.793,4.793,0,0,1,1.26.574,2.9,2.9,0,0,1,.94.987,2.961,2.961,0,0,1,.357,1.514,2.773,2.773,0,0,1-.442,1.627,3.1,3.1,0,0,1-1.138.988,7.41,7.41,0,0,1-1.467.564l1.975,3.292a4.935,4.935,0,0,0,1.316,1.6,2.935,2.935,0,0,0,1.016.47v.471a1.975,1.975,0,0,1-.536.131,5.259,5.259,0,0,1-.762.057m-6.264-6.622h1.129a3.2,3.2,0,0,0,.9-.132,2.283,2.283,0,0,0,.818-.432,2.158,2.158,0,0,0,.593-.809,3.06,3.06,0,0,0,.225-1.242,3.1,3.1,0,0,0-.216-1.232,2.174,2.174,0,0,0-.583-.809,2.228,2.228,0,0,0-.809-.442,3.131,3.131,0,0,0-.894-.132c-.1,0-.248.007-.442.019a5.124,5.124,0,0,0-.724.113Z" transform="translate(-122.261 -64.874)" fill="#fff"/>
    <path id="Path_131849" data-name="Path 131849" d="M233.731,116.8a6.033,6.033,0,0,1-3.264-.875,5.968,5.968,0,0,1-2.173-2.361,7.654,7.654,0,0,1,0-6.7,5.973,5.973,0,0,1,2.173-2.361,6.089,6.089,0,0,1,8.681,2.361,7.654,7.654,0,0,1,0,6.7,5.853,5.853,0,0,1-5.418,3.236m0-.847a2.936,2.936,0,0,0,1.947-.668,4.17,4.17,0,0,0,1.223-1.956,11.7,11.7,0,0,0,0-6.236,4.168,4.168,0,0,0-1.223-1.947,3.145,3.145,0,0,0-3.875,0,4.163,4.163,0,0,0-1.223,1.947,11.7,11.7,0,0,0,0,6.236,4.164,4.164,0,0,0,1.223,1.956,2.909,2.909,0,0,0,1.928.668" transform="translate(-141.08 -64.26)" fill="#fff"/>
    <path id="Path_131850" data-name="Path 131850" d="M267.884,117.228a5.8,5.8,0,0,1-2.822-.621,3.89,3.89,0,0,1-1.693-1.872,7.57,7.57,0,0,1-.565-3.113V107.07a3.545,3.545,0,0,0-.207-1.317.989.989,0,0,0-.941-.564h-.169v-.565h2.069a1.956,1.956,0,0,1,1.025.226,1.236,1.236,0,0,1,.517.752,5.591,5.591,0,0,1,.15,1.467l.019,5.117a5.606,5.606,0,0,0,.762,3.076,2.5,2.5,0,0,0,2.229,1.119,3.877,3.877,0,0,0,2.088-.507,2.976,2.976,0,0,0,1.194-1.562,7.938,7.938,0,0,0,.386-2.69v-7h.941v7a8.445,8.445,0,0,1-.48,3.019,3.751,3.751,0,0,1-1.571,1.919,5.588,5.588,0,0,1-2.935.668" transform="translate(-162.141 -64.874)" fill="#fff"/>
    <path id="Path_131851" data-name="Path 131851" d="M295.771,117.04v-9.97a3.334,3.334,0,0,0-.235-1.364q-.235-.517-1.081-.517h-.188v-.565h5.173q.508,0,1.166.066a7.161,7.161,0,0,1,1.345.273,4.354,4.354,0,0,1,1.27.621,3.052,3.052,0,0,1,.941,1.1,3.712,3.712,0,0,1,.358,1.721,3.347,3.347,0,0,1-.358,1.627,3.079,3.079,0,0,1-.913,1.044,4.424,4.424,0,0,1-1.176.6,5.935,5.935,0,0,1-1.175.273,7.911,7.911,0,0,1-.894.066h-1.787v5.023Zm2.446-5.775h1.129a3.33,3.33,0,0,0,.94-.132,1.958,1.958,0,0,0,.809-.47,2.4,2.4,0,0,0,.574-.912,4.9,4.9,0,0,0,0-2.878,2.378,2.378,0,0,0-.564-.9,1.957,1.957,0,0,0-.781-.461,3.021,3.021,0,0,0-.884-.132c-.138,0-.3.007-.5.019a5.108,5.108,0,0,0-.724.113Z" transform="translate(-182.465 -64.874)" fill="#fff"/>
    <path id="Path_131852" data-name="Path 131852" d="M15.433,94.229a22.4,22.4,0,0,1,6.529,1.681,29.169,29.169,0,0,0,5.252-3.962,30.486,30.486,0,0,0-2.164,6.212,16.876,16.876,0,0,1,3.5,5.868c-2.382-10.561,9.278-26.7,9.278-26.7s-11.66,16.136-22.394,16.9" transform="translate(-9.57 -47.95)" fill="#fff"/>
    <path id="Path_131853" data-name="Path 131853" d="M28.011,133.165a6.2,6.2,0,0,0-.565-3.564,6.2,6.2,0,0,0,3.564-.564,6.2,6.2,0,0,0,.565,3.563,6.2,6.2,0,0,0-3.564.565" transform="translate(-17.018 -80.012)" fill="#fff"/>
    <path id="Path_131854" data-name="Path 131854" d="M.547,77.838a22.4,22.4,0,0,1,4.294,5.2,29.2,29.2,0,0,0,6.578-.119,30.461,30.461,0,0,0-5.4,3.753,16.881,16.881,0,0,1-.618,6.8C9.679,83.53,28.6,77.329,28.6,77.329s-18.918,6.2-28.05.509" transform="translate(-0.339 -47.949)" fill="#fff"/>
    <path id="Path_131855" data-name="Path 131855" d="M.833,95.995A6.2,6.2,0,0,0,2.471,92.78a6.206,6.206,0,0,0,3.215,1.638,6.2,6.2,0,0,0-1.638,3.215A6.2,6.2,0,0,0,.833,95.995" transform="translate(-0.517 -57.53)" fill="#fff"/>
    <path id="Path_131856" data-name="Path 131856" d="M5.267,35.017a22.393,22.393,0,0,1,.419,6.729,29.192,29.192,0,0,0,5.392,3.77A30.5,30.5,0,0,0,4.5,45.377,16.88,16.88,0,0,1,0,50.519c9.308-5.529,28.258.574,28.258.574S9.308,44.99,5.267,35.017" transform="translate(0 -21.713)" fill="#fff"/>
    <path id="Path_131857" data-name="Path 131857" d="M.825,50.774A6.2,6.2,0,0,0,4.04,49.136a6.2,6.2,0,0,0,1.638,3.215,6.206,6.206,0,0,0-3.215,1.638A6.2,6.2,0,0,0,.825,50.774" transform="translate(-0.512 -30.468)" fill="#fff"/>
    <path id="Path_131858" data-name="Path 131858" d="M28.467,7.529a22.407,22.407,0,0,1-3.616,5.69A29.192,29.192,0,0,0,27,19.438a30.464,30.464,0,0,0-5.239-3.978,16.881,16.881,0,0,1-6.662,1.515c10.78,1,22.523,17.074,22.523,17.074S25.875,17.973,28.467,7.529" transform="translate(-9.36 -4.668)" fill="#fff"/>
    <path id="Path_131859" data-name="Path 131859" d="M27.99,14.776a6.2,6.2,0,0,0,3.564.565,6.2,6.2,0,0,0-.565,3.563,6.2,6.2,0,0,0-3.564-.564,6.2,6.2,0,0,0,.565-3.564" transform="translate(-17.005 -9.162)" fill="#fff"/>
    <path id="Path_131860" data-name="Path 131860" d="M69.2,6.347a22.391,22.391,0,0,1-6.27,2.478,29.2,29.2,0,0,0-1.92,6.293,30.464,30.464,0,0,0-1.9-6.3,16.882,16.882,0,0,1-6.28-2.691c8.134,7.144,8.186,27.052,8.186,27.052S60.967,13.273,69.2,6.347" transform="translate(-32.76 -3.8)" fill="#fff"/>
    <path id="Path_131861" data-name="Path 131861" d="M70.2,0a6.2,6.2,0,0,0,2.551,2.551A6.2,6.2,0,0,0,70.2,5.1a6.2,6.2,0,0,0-2.552-2.551A6.2,6.2,0,0,0,70.2,0" transform="translate(-41.946)" fill="#fff"/>
    <path id="Path_131862" data-name="Path 131862" d="M96.773,16.863a22.4,22.4,0,0,1-6.529-1.681,29.168,29.168,0,0,0-5.252,3.962,30.486,30.486,0,0,0,2.164-6.212,16.876,16.876,0,0,1-3.5-5.868c2.382,10.561-9.278,26.7-9.278,26.7s11.66-16.136,22.394-16.9" transform="translate(-46.12 -4.38)" fill="#fff"/>
    <path id="Path_131863" data-name="Path 131863" d="M114,14.761a6.2,6.2,0,0,0,.565,3.564,6.2,6.2,0,0,0-3.564.564,6.2,6.2,0,0,0-.565-3.563A6.2,6.2,0,0,0,114,14.761" transform="translate(-68.481 -9.153)" fill="#fff"/>
    <path id="Path_131864" data-name="Path 131864" d="M102.427,50.476a22.4,22.4,0,0,1-4.294-5.2,29.2,29.2,0,0,0-6.578.119,30.461,30.461,0,0,0,5.4-3.753,16.881,16.881,0,0,1,.618-6.8c-4.281,9.944-23.2,16.145-23.2,16.145s18.918-6.2,28.05-.509" transform="translate(-46.119 -21.603)" fill="#fff"/>
    <path id="Path_131865" data-name="Path 131865" d="M140,50.75a6.2,6.2,0,0,0-1.638,3.215,6.206,6.206,0,0,0-3.215-1.638,6.2,6.2,0,0,0,1.638-3.215A6.2,6.2,0,0,0,140,50.75" transform="translate(-83.8 -30.453)" fill="#fff"/>
    <path id="Path_131866" data-name="Path 131866" d="M97.367,93.41a22.392,22.392,0,0,1-.419-6.729,29.193,29.193,0,0,0-5.392-3.77,30.5,30.5,0,0,0,6.577.139,16.88,16.88,0,0,1,4.5-5.142c-9.308,5.529-28.258-.574-28.258-.574s18.95,6.1,22.992,16.076" transform="translate(-46.118 -47.952)" fill="#fff"/>
    <path id="Path_131867" data-name="Path 131867" d="M140.007,95.971a6.2,6.2,0,0,0-3.215,1.638,6.2,6.2,0,0,0-1.638-3.215,6.206,6.206,0,0,0,3.215-1.638,6.2,6.2,0,0,0,1.638,3.215" transform="translate(-83.805 -57.515)" fill="#fff"/>
    <path id="Path_131868" data-name="Path 131868" d="M83.525,103.853a22.406,22.406,0,0,1,3.616-5.69A29.191,29.191,0,0,0,85,91.944a30.464,30.464,0,0,0,5.239,3.978A16.881,16.881,0,0,1,96.9,94.407c-10.78-1-22.523-17.074-22.523-17.074s11.744,16.076,9.151,26.52" transform="translate(-46.117 -47.952)" fill="#fff"/>
    <path id="Path_131869" data-name="Path 131869" d="M114.025,133.15a6.2,6.2,0,0,0-3.564-.565,6.2,6.2,0,0,0,.565-3.563,6.2,6.2,0,0,0,3.564.564,6.2,6.2,0,0,0-.565,3.564" transform="translate(-68.493 -80.003)" fill="#fff"/>
    <path id="Path_131870" data-name="Path 131870" d="M52.833,104.166a22.385,22.385,0,0,1,6.27-2.478,29.243,29.243,0,0,0,1.92-6.293,30.464,30.464,0,0,0,1.9,6.3,16.882,16.882,0,0,1,6.281,2.691c-8.135-7.144-8.186-27.052-8.186-27.052s.051,19.908-8.184,26.834" transform="translate(-32.76 -47.951)" fill="#fff"/>
    <path id="Path_131871" data-name="Path 131871" d="M70.225,146.336a6.2,6.2,0,0,0-2.551-2.551,6.2,6.2,0,0,0,2.551-2.551,6.2,6.2,0,0,0,2.551,2.551,6.2,6.2,0,0,0-2.551,2.551" transform="translate(-41.963 -87.575)" fill="#fff"/>
  </g>
</svg>
